<?xml version="1.0" encoding="UTF-8" standalone="no"?>
<!DOCTYPE svg PUBLIC "-//W3C//DTD SVG 20010904//EN" "http://www.w3.org/TR/2001/REC-SVG-20010904/DTD/svg10.dtd">
<svg version="1.0" xmlns="http://www.w3.org/2000/svg" width="900.000000pt" height="900.000000pt" viewBox="0 0 900.000000 900.000000" preserveAspectRatio="xMidYMid meet">
<metadata>
Created by potrace 1.10, written by Peter Selinger 2001-2011
</metadata>
<g transform="translate(0.000000,900.000000) scale(0.100000,-0.100000)" fill="#3E2723" stroke="none">
<path d="M2703 8413 c-53 -27 -53 -27 -100 -10 -27 10 -77 17 -115 17 -57 0 -76 -5 -135 -36 -51 -27 -87 -37 -143 -43 -56 -6 -88 -16 -126 -38 -45 -27 -61 -31 -150 -35 -91 -3 -106 -7 -176 -42 -42 -21 -89 -51 -104 -67 -25 -26 -34 -29 -90 -29 -83 0 -164 -30 -196 -73 -32 -42 -68 -129 -68 -162 0 -14 7 -42 15 -62 22 -53 19 -93 -11 -128 -23 -27 -25 -36 -21 -95 2 -38 15 -94 30 -134 21 -53 27 -87 27 -144 0 -72 2 -79 45 -147 34 -56 47 -87 54 -138 11 -80 39 -144 93 -216 23 -30 45 -71 49 -90 7 -38 23 -85 45 -138 7 -18 30 -43 51 -56 21 -14 51 -36 66 -51 16 -15 39 -34 52 -42 15 -9 35 -44 51 -87 31 -82 51 -103 131 -141 32 -15 69 -33 82 -39 14 -7 40 -38 59 -70 18 -32 41 -61 50 -64 30 -9 87 -38 105 -52 23 -19 22 -30 -7 -40 -42 -16 -135 -81 -146 -101 -6 -11 -28 -31 -48 -44 -98 -62 -217 -215 -286 -366 -22 -47 -56 -122 -78 -167 -21 -45 -38 -88 -38 -95 0 -8 -7 -41 -16 -73 -10 -36 -18 -109 -19 -185 -6 -219 -26 -284 -103 -328 -58 -34 -218 -193 -252 -251 -14 -24 -36 -57 -50 -75 -68 -84 -101 -146 -134 -257 -19 -64 -46 -152 -60 -195 -59 -181 -45 -645 27 -909 36 -131 97 -296 122 -330 29 -39 65 -110 65 -129 0 -8 15 -32 33 -54 17 -23 61 -82 97 -132 35 -50 96 -119 135 -154 114 -101 316 -245 390 -279 22 -10 46 -24 55 -32 8 -7 35 -21 59 -31 56 -22 158 -90 171 -114 5 -9 12 -37 16 -61 7 -50 58 -228 80 -277 8 -18 14 -40 14 -48 0 -14 15 -43 78 -154 14 -25 45 -66 69 -92 24 -26 43 -52 43 -57 0 -18 110 -129 153 -154 23 -14 56 -40 72 -57 17 -18 62 -47 100 -65 39 -17 79 -42 89 -54 11 -11 26 -21 35 -21 8 0 57 -20 108 -45 50 -25 104 -45 118 -45 14 0 38 -6 53 -14 51 -26 322 -93 432 -106 41 -6 86 -13 100 -16 39 -11 989 -13 1040 -3 25 4 91 13 148 19 145 16 266 43 392 90 41 15 120 42 175 60 55 18 114 40 130 50 17 10 64 36 107 58 105 56 300 204 340 259 13 17 51 68 86 113 35 44 70 97 78 118 8 20 25 60 39 87 34 70 125 364 125 402 0 33 21 53 56 53 9 0 32 11 50 25 19 14 62 39 96 55 122 56 362 234 488 362 86 87 180 197 180 211 0 6 57 91 93 139 15 19 27 41 27 49 0 8 9 28 20 44 11 17 32 68 46 115 14 47 31 94 38 105 20 32 58 207 76 351 7 49 14 105 17 124 3 19 7 114 8 210 3 182 -1 214 -46 338 -10 29 -19 62 -19 74 0 12 -11 44 -24 72 -13 28 -27 67 -31 87 -4 20 -14 48 -23 62 -198 300 -241 354 -324 412 -40 28 -91 69 -114 93 l-42 43 -7 97 c-3 53 -7 126 -8 162 -3 80 -10 119 -47 240 -16 52 -38 127 -49 166 -12 40 -35 88 -52 110 -17 22 -44 64 -60 94 -27 51 -87 131 -142 190 -65 69 -269 229 -309 242 -24 8 10 36 52 43 48 8 126 90 136 142 5 24 13 35 31 39 22 6 84 39 168 91 20 12 38 39 56 83 30 72 31 72 145 181 78 74 96 105 111 184 3 17 29 55 57 86 57 61 83 126 89 222 3 40 10 66 25 85 12 15 33 51 47 79 21 44 25 66 24 130 -2 70 2 85 29 138 38 73 40 106 7 188 l-26 64 21 77 c19 71 19 81 6 127 -8 27 -29 68 -45 92 -51 70 -106 96 -262 121 -21 4 -47 18 -65 37 -21 22 -55 38 -127 60 -93 29 -110 31 -168 13 -8 -2 -42 13 -75 34 -70 45 -123 62 -193 62 -39 0 -65 7 -106 31 l-54 30 -98 -10 c-54 -5 -113 -13 -131 -17 -26 -5 -40 -2 -63 15 -49 36 -123 47 -192 27 -31 -10 -70 -28 -86 -42 -33 -27 -78 -31 -107 -9 -33 25 -81 17 -166 -27 -76 -39 -84 -41 -176 -43 -92 -2 -100 -4 -158 -39 -33 -20 -73 -50 -89 -66 -24 -25 -37 -30 -74 -30 -64 0 -175 -66 -230 -137 -22 -29 -49 -57 -59 -62 -24 -13 -92 -103 -126 -167 -15 -27 -40 -71 -56 -99 -33 -56 -50 -91 -50 -106 0 -19 -31 -70 -39 -64 -5 2 -14 26 -20 52 -7 26 -28 73 -47 105 -19 33 -34 61 -34 63 0 17 -118 172 -172 228 -38 38 -68 72 -68 76 0 8 -83 66 -133 93 -18 9 -50 17 -73 18 -35 0 -48 7 -90 47 -27 25 -74 58 -104 72 -47 22 -67 26 -138 24 -77 -1 -88 1 -167 38 -93 42 -130 47 -176 23 -30 -15 -34 -14 -117 22 -115 50 -177 54 -249 17z m52 -364 c33 -18 73 -38 89 -47 38 -20 74 -7 101 35 11 18 25 32 30 32 6 0 26 -12 46 -27 20 -15 55 -42 79 -59 65 -50 115 -40 134 25 11 35 34 26 95 -36 55 -58 88 -82 112 -82 6 0 27 17 47 37 l35 37 96 -102 c105 -110 127 -121 169 -82 12 11 27 20 34 20 23 0 143 -161 192 -257 34 -68 77 -191 97 -278 37 -163 11 -262 -105 -396 -41 -48 -82 -89 -92 -93 -21 -8 -49 10 -122 80 -61 59 -218 167 -457 314 -183 113 -171 107 -440 225 -71 31 -161 72 -200 90 -180 83 -310 129 -365 130 -45 0 -55 -3 -58 -18 -5 -27 22 -53 107 -99 42 -23 99 -53 126 -68 81 -44 205 -114 275 -155 36 -21 74 -43 85 -49 151 -88 461 -301 560 -384 143 -120 285 -254 285 -268 0 -36 -61 -136 -125 -203 -80 -84 -162 -143 -244 -176 -103 -41 -303 -82 -421 -87 l-75 -3 -5 45 c-5 44 -6 45 -55 62 -32 11 -83 17 -142 18 -50 0 -103 4 -117 10 -24 9 -25 13 -20 53 6 39 3 46 -21 65 -15 12 -41 22 -56 22 -34 0 -153 46 -169 65 -7 9 -6 16 5 25 21 17 19 56 -4 79 -11 11 -61 42 -113 70 -51 27 -102 57 -113 65 -20 14 -20 15 8 43 48 51 37 78 -51 134 -73 46 -122 87 -122 102 0 5 11 18 25 29 44 34 34 62 -56 154 -55 56 -80 88 -76 98 4 9 13 16 20 16 25 0 67 41 67 65 0 23 -54 84 -118 133 -18 14 -40 38 -48 54 l-15 28 34 0 c18 0 43 7 56 16 20 14 23 23 18 61 -2 24 -23 82 -46 129 -23 46 -39 89 -36 94 4 6 63 10 136 10 126 0 131 1 155 25 17 18 23 32 19 43 -22 52 -22 52 51 52 45 0 97 -9 149 -25 95 -30 106 -30 134 -7 17 14 25 36 30 85 2 15 63 6 123 -18 105 -43 158 -27 158 47 0 38 28 37 105 -3z m3285 3 c0 -74 53 -90 158 -47 78 32 122 33 122 5 0 -33 28 -79 53 -85 20 -5 71 5 164 34 39 11 150 17 159 8 4 -3 1 -21 -6 -38 -13 -30 -12 -33 14 -55 26 -23 35 -24 162 -24 84 0 134 -4 134 -10 0 -6 -18 -47 -41 -91 -22 -45 -43 -102 -46 -129 -5 -42 -3 -49 18 -64 13 -9 38 -16 56 -16 18 0 33 -5 33 -11 0 -11 -11 -22 -118 -123 -80 -75 -80 -106 1 -148 l40 -20 -87 -87 c-98 -99 -107 -125 -56 -163 l30 -22 -37 -38 c-20 -21 -42 -38 -48 -38 -5 -1 -35 -20 -65 -43 -66 -51 -73 -77 -34 -118 35 -36 32 -39 -94 -105 -52 -27 -104 -59 -118 -71 -27 -25 -31 -64 -9 -83 8 -7 15 -16 15 -20 0 -12 -120 -61 -175 -71 -66 -12 -88 -38 -79 -94 6 -41 5 -42 -26 -49 -18 -3 -69 -6 -114 -6 -137 0 -196 -26 -196 -86 0 -18 -4 -35 -9 -38 -27 -17 -327 32 -451 74 -167 56 -356 227 -395 356 l-14 49 52 49 c55 51 204 185 250 223 105 88 511 358 651 433 17 10 93 51 169 94 76 42 140 76 142 76 9 0 132 75 153 94 47 42 13 75 -65 63 -46 -8 -306 -116 -616 -257 -23 -10 -73 -33 -112 -50 -38 -17 -77 -35 -85 -40 -8 -5 -76 -46 -150 -91 -248 -151 -387 -246 -461 -316 -83 -78 -110 -96 -134 -87 -27 11 -155 165 -177 214 -27 59 -37 186 -21 265 25 122 90 282 150 375 61 93 123 170 137 170 7 0 25 -9 39 -20 51 -40 68 -30 209 128 26 29 51 52 56 52 5 0 17 -11 26 -25 21 -32 52 -48 77 -40 12 4 49 36 83 71 34 35 69 64 77 64 8 0 20 -13 26 -30 23 -60 86 -64 151 -7 48 42 99 77 111 77 5 0 18 -16 29 -35 32 -54 58 -54 159 -1 105 54 133 58 133 18z m-1460 -2112 c255 -56 423 -149 501 -279 34 -57 39 -72 39 -128 0 -78 -22 -125 -93 -201 -83 -87 -186 -140 -377 -195 -67 -19 -99 -22 -310 -22 -243 0 -292 7 -430 58 -144 53 -278 156 -324 250 -107 214 125 446 519 516 33 6 69 13 80 15 38 9 340 -2 395 -14z m-1405 -128 c67 -9 68 -27 6 -110 -64 -87 -357 -373 -486 -476 -55 -44 -120 -96 -145 -116 -25 -19 -56 -43 -70 -53 -14 -10 -41 -30 -61 -45 -147 -110 -328 -222 -359 -222 -29 0 -31 24 -10 153 43 270 120 435 284 605 129 134 327 235 510 262 64 9 265 10 331 2z m2620 -51 c100 -20 230 -69 287 -107 21 -13 40 -24 44 -24 14 0 126 -94 179 -151 149 -161 237 -379 252 -621 7 -115 1 -123 -74 -87 -257 122 -838 622 -1082 933 -31 39 -37 57 -24 69 3 4 79 7 167 7 118 0 185 -5 251 -19z m-319 -842 c198 -51 390 -183 520 -356 195 -259 275 -573 214 -848 -22 -103 -48 -182 -61 -191 -5 -3 -9 -11 -9 -19 0 -21 -73 -125 -126 -180 -89 -91 -223 -162 -352 -187 -78 -14 -252 -3 -328 21 -155 50 -263 115 -392 236 -144 135 -242 306 -309 540 -20 71 -29 319 -13 398 57 293 216 490 465 575 85 29 88 30 206 31 77 1 126 -4 185 -20z m-1924 -58 c338 -97 538 -437 497 -846 -5 -55 -14 -117 -20 -137 -59 -224 -144 -374 -298 -529 -131 -131 -260 -209 -421 -254 -99 -28 -292 -26 -387 4 -131 41 -257 133 -338 246 -168 236 -196 567 -76 885 21 57 109 216 143 260 143 183 316 306 514 365 106 32 286 34 386 6z m3220 -511 c111 -74 232 -205 298 -325 108 -194 125 -262 124 -475 -1 -190 -18 -260 -104 -445 -30 -64 -108 -166 -151 -198 -23 -16 -30 -17 -50 -6 -30 16 -38 24 -77 80 -32 47 -41 68 -92 214 -96 273 -153 774 -112 975 20 93 51 167 80 190 32 25 30 26 84 -10z m-4855 -37 c32 -48 44 -85 59 -182 37 -249 -12 -659 -117 -973 -56 -170 -132 -288 -185 -288 -32 0 -125 108 -173 200 -21 41 -54 120 -72 175 -34 99 -34 101 -34 290 0 231 9 267 107 445 73 134 153 228 263 311 102 77 113 79 152 22z m2638 -1575 c39 -5 108 -13 155 -17 95 -10 134 -17 335 -67 221 -55 318 -86 397 -129 14 -8 34 -15 45 -15 10 -1 43 -14 73 -30 30 -17 61 -30 69 -30 7 0 30 -9 50 -19 20 -10 72 -35 116 -55 44 -21 91 -43 105 -51 14 -8 45 -24 70 -36 60 -29 119 -77 208 -166 l72 -74 0 -172 c0 -171 -20 -379 -40 -417 -5 -10 -10 -27 -10 -37 0 -10 -11 -35 -25 -55 -14 -21 -28 -52 -32 -70 -12 -64 -97 -175 -242 -317 -98 -96 -215 -181 -249 -181 -10 0 -38 -14 -60 -30 -23 -17 -44 -30 -47 -30 -3 0 -33 -13 -67 -28 -98 -44 -110 -49 -194 -70 -220 -56 -434 -86 -694 -97 -230 -10 -767 -4 -787 8 -5 3 -45 7 -89 8 -149 3 -455 81 -584 149 -19 10 -65 35 -102 54 -37 20 -73 36 -80 36 -31 0 -156 99 -264 208 -119 119 -151 161 -211 270 -13 23 -23 48 -23 56 0 8 -11 37 -25 64 -44 89 -73 279 -80 525 -3 120 -1 140 13 153 62 53 223 184 252 204 35 26 148 87 210 116 19 9 54 29 77 45 23 16 68 39 100 51 32 12 67 28 78 35 11 7 27 13 36 13 10 0 39 11 66 24 26 13 95 36 153 51 268 71 326 85 398 95 42 6 100 16 127 21 28 5 59 6 70 3 11 -3 31 -1 45 5 32 13 489 12 585 -1z"/>
<path d="M3575 2490 c-42 -26 -67 -63 -100 -145 -50 -126 -65 -227 -65 -439 0 -249 23 -381 92 -524 54 -111 116 -139 182 -82 89 78 155 342 156 620 0 239 -80 518 -165 570 -40 25 -62 25 -100 0z"/>
<path d="M4935 2498 c-74 -40 -126 -138 -161 -303 -27 -125 -25 -476 4 -607 12 -53 26 -107 31 -120 35 -89 48 -117 74 -150 44 -58 102 -61 158 -9 23 21 79 134 79 159 0 11 6 35 14 53 23 57 46 251 46 392 0 260 -71 514 -160 575 -37 24 -55 27 -85 10z"/>
</g>
</svg>
